<svg id="Layer_1" data-name="Layer 1"
	xmlns="http://www.w3.org/2000/svg" viewBox="0 0 531.2 493.56">
	<path d="M0,5H.63" style="fill:none;stroke:#fde047;stroke-miterlimit:10;stroke-width:10px"/>
	<path d="M91.2,42.28A.88.88,0,0,1,92,41.22s129.08-10.26,194-6.3h219c1.81,73.88,5.61,146.57,2.82,220.41-1.9,50.4-4.87,101-.2,151.18,2.18,23.35,4.05,69.12,4.05,69.12a1,1,0,0,1-1,1s-168,1.22-252.91,1.18l-97.79-.06-70.47,0a1,1,0,0,1-1-1s4.48-247.61,10.08-373.51C99.53,84.18,91.2,42.28,91.2,42.28Z" style="fill:none;stroke:#fde047;stroke-miterlimit:10;stroke-width:10px"/>
	<path d="M99.66,471.86a1.22,1.22,0,0,0,1,1.11s56.27,6.48,85.21,7.46c15.94.53,31.83,2.07,47.73,3.34,92.18,7.39,277.94,4,277.94,4a1,1,0,0,0,.95-1s-3.19-63.78-4.35-96.19c-4.36-122.17-1.82-367-1.82-367a.86.86,0,0,0-1-.89S456.25,27.9,431.13,30C317.81,39.38,91.2,35.75,91.2,35.75a1,1,0,0,0-1,1Z" style="fill:none;stroke:#fde047;stroke-miterlimit:10;stroke-width:10px"/>
	<path d="M91.6,464.26a.87.87,0,0,1-1.06-.8s-10-129.09-6.13-194v-219c72-1.8,142.74-5.6,214.66-2.81,49.07,1.9,98.32,4.87,147.22.19,22.74-2.17,67.29-4,67.29-4a1,1,0,0,1,1,1s1.19,168,1.15,252.92l-.06,97.79,0,70.47a1,1,0,0,1-1,1s-241.12-4.48-363.72-10.08C132.39,455.94,91.6,464.26,91.6,464.26Z" style="fill:none;stroke:#fde047;stroke-miterlimit:10;stroke-width:10px"/>
	<path d="M509.91,455.81a1.23,1.23,0,0,0,1.11-1.05s6.31-56.27,7.26-85.21c.52-15.95,2-31.84,3.26-47.74,7.19-92.18,3.92-277.93,3.92-277.93a1,1,0,0,0-1-1s-62.09,3.19-93.65,4.35c-119,4.36-357.35,1.81-357.35,1.81a.89.89,0,0,0-.9,1s5,49.14,7.06,74.25c9.15,113.33,5.61,339.94,5.61,339.94a1,1,0,0,0,1,1Z" style="fill:none;stroke:#fde047;stroke-miterlimit:10;stroke-width:10px"/>
	<text transform="translate(180.41 373.4)" style="font-size:331.987548828125px;fill:#fff;font-family:PlayfairDisplayItalic-BoldItalic, Playfair Display;font-weight:700;font-style:italic">D</text>
</svg>