<svg id="Layer_1" data-name="Layer 1"
	xmlns="http://www.w3.org/2000/svg" viewBox="0 0 517.54 491.82">
	<path d="M0,5H.63" style="fill:none;stroke:#fde047;stroke-miterlimit:10;stroke-width:10px"/>
	<path d="M91.21,43.89a.87.87,0,0,1,.8-1.06s129.08-10.18,194-6.25h219c1.81,73.32,5.61,145.47,2.82,218.76-1.9,50-4.87,100.2-.2,150,2.18,23.17,4.05,68.59,4.05,68.59a1,1,0,0,1-1,1s-168,1.22-252.91,1.17l-97.79,0-70.47,0a1,1,0,0,1-1-1s4.48-245.74,10.08-370.69C99.53,85.47,91.21,43.89,91.21,43.89Z" style="fill:none;stroke:#fde047;stroke-miterlimit:10;stroke-width:10px"/>
	<path d="M99.66,470.23a1.22,1.22,0,0,0,1,1.11s56.27,6.44,85.21,7.4c15.94.53,31.83,2.06,47.73,3.32,92.18,7.34,277.94,4,277.94,4a1,1,0,0,0,.95-1s-3.19-63.29-4.35-95.46c-4.36-121.26-1.82-364.2-1.82-364.2a.86.86,0,0,0-1-.89s-49.14,5.12-74.26,7.19C317.81,41,91.2,37.4,91.2,37.4a1,1,0,0,0-1,1Z" style="fill:none;stroke:#fde047;stroke-miterlimit:10;stroke-width:10px"/>
</svg>